<svg width="64" height="64" viewBox="0 0 64 64" fill="none" xmlns="http://www.w3.org/2000/svg">
<g clip-path="url(#clip0_1673_11304)">
<rect width="64" height="64" rx="32" fill="url(#paint0_linear_1673_11304)"/>
<g clip-path="url(#clip1_1673_11304)">
<rect width="64" height="64" fill="url(#paint1_linear_1673_11304)"/>
<g opacity="0.4">
<mask id="mask0_1673_11304" style="mask-type:luminance" maskUnits="userSpaceOnUse" x="0" y="0" width="64" height="64">
<rect width="64" height="64" fill="white"/>
</mask>
<g mask="url(#mask0_1673_11304)">
<path opacity="0.5" fill-rule="evenodd" clip-rule="evenodd" d="M44.1352 56.7847C46.8387 55.4557 49.2941 53.6989 51.4125 51.6007L59.4136 59.6018H44.1352V56.7847ZM32.1352 59.6018V59.5986C36.3315 59.5783 40.3096 58.6183 43.8685 56.9159V59.6018H32.1352ZM20.1352 59.6018V56.9159C23.6941 58.6183 27.6723 59.5783 31.8685 59.5986V59.6018H20.1352ZM4.59064 59.6018L12.5912 51.6007C14.7096 53.6989 17.1656 55.4557 19.8685 56.7847V59.6018H4.59064ZM7.21892 44.1351C8.54799 46.8386 10.3048 49.2941 12.4029 51.4125L4.40185 59.4135V44.1351H7.21892ZM4.40185 32.1351H4.40505C4.42532 36.3319 5.38532 40.3095 7.08772 43.8685H4.40185V32.1351ZM4.40185 20.1351H7.08772C5.38532 23.6941 4.42532 27.6722 4.40505 31.8685H4.40185V20.1351ZM4.40185 4.59061L12.4029 12.5911C10.3048 14.7095 8.54799 17.1655 7.21892 19.8685H4.40185V4.59061ZM19.8685 7.21888C17.1656 8.54794 14.7096 10.3047 12.5912 12.4029L4.59064 4.40181H19.8685V7.21888ZM31.8685 4.40181V4.40501C27.6723 4.42528 23.6941 5.38581 20.1352 7.08768V4.40181H31.8685ZM43.8685 4.40181V7.08768C40.3096 5.38581 36.3315 4.42528 32.1352 4.40501V4.40181H43.8685ZM59.4136 4.40181L51.4125 12.4029C49.2941 10.3047 46.8387 8.54794 44.1352 7.21888V4.40181H59.4136ZM56.7848 19.8685C55.4563 17.1655 53.6995 14.7095 51.6013 12.5911L59.6019 4.59061V19.8685H56.7848ZM59.6018 31.8685H59.5986C59.5789 27.6722 58.6184 23.6941 56.9165 20.1351H59.6018V31.8685ZM59.6018 43.8685H56.9165C58.6184 40.3095 59.5789 36.3319 59.5986 32.1351H59.6018V43.8685ZM44.324 44.1351H56.485C55.1768 46.7655 53.4594 49.157 51.4125 51.2237L44.324 44.1351ZM44.1352 44.3234L51.2243 51.4125C49.1571 53.4594 46.7656 55.1762 44.1352 56.485V44.3234ZM32.1352 49.1986C36.6808 49.1634 40.8093 47.3559 43.8685 44.4349V56.6221C40.3155 58.3415 36.3357 59.3117 32.1352 59.3319V49.1986ZM20.1352 44.4349C23.1944 47.3559 27.3229 49.1634 31.8685 49.1986V59.3319C27.668 59.3117 23.6883 58.3415 20.1352 56.6221V44.4349ZM19.8685 44.3239V56.485C17.2386 55.1762 14.8466 53.4594 12.78 51.4125L19.8685 44.3239ZM19.6802 44.1351L12.5912 51.2237C10.5442 49.157 8.82744 46.7655 7.51864 44.1351H19.6802ZM14.8051 32.1351C14.8403 36.6807 16.6477 40.8093 19.5688 43.8685H7.38159C5.66212 40.3154 4.69199 36.3357 4.67172 32.1351H14.8051ZM19.5688 20.1351C16.6477 23.1943 14.8403 27.3229 14.8051 31.8685H4.67172C4.69199 27.6679 5.66212 23.6882 7.38212 20.1351H19.5688ZM19.6802 19.8685H7.51864C8.82744 17.2386 10.5442 14.8466 12.5912 12.7799L19.6802 19.8685ZM19.8685 19.6797L12.78 12.5911C14.8466 10.5442 17.2386 8.82741 19.8685 7.51861V19.6797ZM31.8685 14.805C27.3229 14.8402 23.1944 16.6477 20.1352 19.5687V7.38207C23.6883 5.66207 27.668 4.69194 31.8685 4.67167V14.805ZM43.8685 19.5687C40.8093 16.6477 36.6808 14.8402 32.1352 14.805V4.67167C36.3357 4.69194 40.3155 5.66207 43.8685 7.38207V19.5687ZM44.1352 19.6802V7.51861C46.7656 8.82741 49.1571 10.5442 51.2243 12.5911L44.1352 19.6802ZM44.324 19.8685L51.4125 12.7799C53.4594 14.8466 55.1762 17.2386 56.485 19.8685H44.324ZM49.1986 31.8685C49.164 27.3229 47.356 23.1943 44.4349 20.1351H56.6221C58.3416 23.6882 59.3117 27.6679 59.332 31.8685H49.1986ZM49.1986 32.1351H59.332C59.3117 36.3357 58.3416 40.3154 56.6221 43.8685H44.4349C47.356 40.8093 49.164 36.6807 49.1986 32.1351ZM32.1352 44.1351H43.7965C40.7747 47.0738 36.6648 48.8967 32.1352 48.9319V44.1351ZM31.8685 44.1351V48.9319C27.3389 48.8967 23.229 47.0738 20.2072 44.1351H31.8685ZM19.8685 32.1351V43.7965C16.9304 40.7746 15.1074 36.6647 15.0717 32.1351H19.8685ZM19.8685 31.8685H15.0717C15.1074 27.3389 16.9304 23.229 19.8685 20.2071V31.8685ZM31.8685 19.8685H20.2072C23.229 16.9303 27.3389 15.1074 31.8685 15.0717V19.8685ZM32.1352 19.8685V15.0717C36.6648 15.1074 40.7747 16.9303 43.7965 19.8685H32.1352ZM44.1352 31.8685V20.2071C47.0739 23.229 48.8968 27.3389 48.932 31.8685H44.1352ZM44.1352 32.1351H48.932C48.8968 36.6647 47.0739 40.7746 44.1352 43.797V32.1351ZM32.1352 32.3234L43.6803 43.8685H32.1352V32.3234ZM31.8685 32.3239V43.8685H20.324L31.8685 32.3239ZM31.6803 32.1351L20.1352 43.6802V32.1351H31.6803ZM31.6803 31.8685H20.1352V20.3234L31.6803 31.8685ZM31.8685 31.6797L20.324 20.1351H31.8685V31.6797ZM32.1352 31.6802V20.1351H43.6803L32.1352 31.6802ZM43.8685 32.1351V43.6797L32.324 32.1351H43.8685ZM32.324 31.8685L43.8685 20.3239V31.8685H32.324ZM59.6019 59.4135L51.6013 51.4125C53.6995 49.2941 55.4563 46.8386 56.7848 44.1351H59.6019V59.4135ZM64.7239 64.5351L60.0573 59.8685H64.1351V59.6018H59.8685V44.1351H64.1351V43.8685H59.8685V32.1351H64.1351V31.8685H59.8685V20.1351H64.1351V19.8685H59.8685V4.4018H64.1351V4.13514H60.0573L64.1906 0.00180426L64.0018 -0.186462L59.8685 3.94687V-0.131529H59.6018V4.13514H44.1351V-0.131529H43.8685V4.13514H32.1351V-0.131529H31.8685V4.13514H20.1351V-0.131529H19.8685V4.13514H4.40179V-0.131529H4.13512V3.94687L0.00178829 -0.186462L-0.187012 0.00180426L3.94686 4.13514H-0.131545V4.4018H4.13512V19.8685H-0.131545V20.1351H4.13512V31.8685H-0.131545V32.1351H4.13512V43.8685H-0.131545V44.1351H4.13512V59.6018H-0.131545V59.8685H3.94686L-0.187012 64.0018L0.00178829 64.1906L4.13512 60.0573V64.1351H4.40179V59.8685H19.8685V64.1351H20.1351V59.8685H31.8685V64.1351H32.1351V59.8685H43.8685V64.1351H44.1351V59.8685H59.6018V64.1351H59.8685V60.0573L64.5351 64.7239L64.7239 64.5351Z" fill="white"/>
</g>
</g>
<g opacity="0.4">
<rect opacity="0.720266" x="10.8086" y="2.80859" width="42.5078" height="58.5078" rx="4.16016" stroke="white" stroke-width="0.117188"/>
<rect opacity="0.720266" x="6.80859" y="6.80859" width="50.5078" height="50.5078" rx="4.16016" stroke="white" stroke-width="0.117188"/>
<rect opacity="0.720266" x="2.80859" y="10.8086" width="58.5078" height="42.5078" rx="4.16016" stroke="white" stroke-width="0.117188"/>
<path d="M61.3164 32.0625C61.3164 48.219 48.219 61.3164 32.0625 61.3164C15.906 61.3164 2.80859 48.219 2.80859 32.0625C2.80859 15.906 15.906 2.80859 32.0625 2.80859C48.219 2.80859 61.3164 15.906 61.3164 32.0625Z" stroke="white" stroke-width="0.117188"/>
<path d="M45.1914 32.0625C45.1914 39.3134 39.3134 45.1914 32.0625 45.1914C24.8116 45.1914 18.9336 39.3134 18.9336 32.0625C18.9336 24.8116 24.8116 18.9336 32.0625 18.9336C39.3134 18.9336 45.1914 24.8116 45.1914 32.0625Z" stroke="white" stroke-width="0.117188"/>
<rect x="22.8086" y="22.8086" width="18.5078" height="18.5078" stroke="white" stroke-width="0.117188"/>
<path d="M22.8125 0.0625V64.0625" stroke="white" stroke-width="0.117188" stroke-linecap="square"/>
<path d="M32.0625 0V64" stroke="white" stroke-width="0.117188" stroke-linecap="square"/>
<path d="M41.3125 0V64" stroke="white" stroke-width="0.117188" stroke-linecap="square"/>
<path d="M64.0625 22.8125H0.0625" stroke="white" stroke-width="0.117188" stroke-linecap="square"/>
<path d="M64 32.0625H0" stroke="white" stroke-width="0.117188" stroke-linecap="square"/>
<path d="M64.0625 41.3125H0.0625" stroke="white" stroke-width="0.117188" stroke-linecap="square"/>
<path d="M0.0625 0.0625L64.0625 64.0625" stroke="white" stroke-width="0.117188" stroke-linecap="square"/>
<path d="M64.0625 0.0625L0.0625 64.0625" stroke="white" stroke-width="0.117188" stroke-linecap="square"/>
</g>
<path d="M44.7997 43.7334C44.7997 44.0163 44.6874 44.2876 44.4873 44.4876C44.2873 44.6877 44.016 44.8 43.7331 44.8H20.2664C19.9835 44.8 19.7122 44.6877 19.5122 44.4876C19.3121 44.2876 19.1997 44.0163 19.1997 43.7334C19.1997 43.4505 19.3121 43.1792 19.5122 42.9791C19.7122 42.7791 19.9835 42.6667 20.2664 42.6667H26.6664V34.1334H26.1331C23.7292 34.1309 21.4245 33.1749 19.7247 31.4751C18.0249 29.7753 17.0689 27.4706 17.0664 25.0667C17.0664 24.0766 17.4597 23.127 18.1599 22.4268C18.86 21.7267 19.8096 21.3334 20.7997 21.3334C21.7899 21.3334 22.7395 21.7267 23.4396 22.4268C24.1397 23.127 24.5331 24.0766 24.5331 25.0667C24.5331 25.4911 24.7016 25.898 25.0017 26.1981C25.3018 26.4981 25.7087 26.6667 26.1331 26.6667H26.6664V22.4C26.6664 20.9856 27.2283 19.629 28.2285 18.6288C29.2287 17.6286 30.5853 17.0667 31.9997 17.0667C33.4142 17.0667 34.7708 17.6286 35.771 18.6288C36.7712 19.629 37.3331 20.9856 37.3331 22.4V32H37.8664C38.2908 32 38.6977 31.8315 38.9978 31.5314C39.2978 31.2314 39.4664 30.8244 39.4664 30.4C39.4664 29.4099 39.8597 28.4603 40.5599 27.7602C41.26 27.06 42.2096 26.6667 43.1997 26.6667C44.1899 26.6667 45.1395 27.06 45.8396 27.7602C46.5397 28.4603 46.9331 29.4099 46.9331 30.4C46.9306 32.8039 45.9746 35.1086 44.2748 36.8084C42.575 38.5082 40.2703 39.4642 37.8664 39.4667H37.3331V42.6667H43.7331C44.016 42.6667 44.2873 42.7791 44.4873 42.9791C44.6874 43.1792 44.7997 43.4505 44.7997 43.7334Z" fill="white"/>
</g>
</g>
<defs>
<linearGradient id="paint0_linear_1673_11304" x1="32" y1="0" x2="32" y2="64" gradientUnits="userSpaceOnUse">
<stop stop-color="#303030"/>
<stop offset="1" stop-color="#121212"/>
</linearGradient>
<linearGradient id="paint1_linear_1673_11304" x1="32" y1="0" x2="32" y2="64" gradientUnits="userSpaceOnUse">
<stop stop-color="#303030"/>
<stop offset="1" stop-color="#121212"/>
</linearGradient>
<clipPath id="clip0_1673_11304">
<rect width="64" height="64" rx="32" fill="white"/>
</clipPath>
<clipPath id="clip1_1673_11304">
<rect width="64" height="64" fill="white"/>
</clipPath>
</defs>
</svg>
